<svg fill="#FFFFFF" xmlns="http://www.w3.org/2000/svg" xmlns:xlink="http://www.w3.org/1999/xlink" viewBox="0 0 93 81" version="1.1" x="0px" y="0px"><title>Blood Pressure</title><desc>Created with Sketch.</desc><g stroke="none" stroke-width="1" fill="none" fill-rule="evenodd"><g transform="translate(-16.000000, -56.000000)" fill="#FFFFFF"><g transform="translate(16.000000, 56.000000)"><path d="M59.6317795,69.8905675 L49.1393391,79.7406137 C47.4250699,81.4562295 44.7950875,81.4562295 43.0794717,79.7406137 L18.436011,56.511122 C1.97606448,40.0525221 -7.55181265,25.5179237 8.34161852,8.03218283 C18.436011,-3.07353299 32.5810881,-1.74012166 45.4051141,10.279962 C45.8104519,10.6852998 46.5147432,10.6852998 46.920081,10.279962 C58.5348268,-1.74012166 73.8837976,-2.13832173 84.0899609,8.03218283 C96.2002325,20.100143 94.0841845,31.5133165 85.6830325,43.1556602 C82.5877288,36.0050563 75.4761102,31.0088188 67.1697069,30.9960126 C55.9805187,30.979879 46.9016051,40.0254498 46.9016051,51.1963534 C46.8983234,59.6442212 52.1679992,66.8968186 59.6317795,69.8905675 Z M85.4993687,51.1798423 C85.4993687,61.2935067 77.2103294,69.5786348 67.1377336,69.5219208 C56.9702887,69.464229 48.7350298,61.2631941 48.7389411,51.1945097 C48.7389411,41.0387986 56.9927787,32.8152737 67.1651128,32.8299411 C77.3130012,32.8455864 85.4993687,41.0427099 85.4993687,51.1798423 Z M51.7934504,51.1560768 C51.8367274,59.6876909 58.6614148,66.4892301 67.1457261,66.4540046 C75.7558426,66.4177726 82.5412787,59.5618855 82.4859244,50.9437174 C82.4345958,42.5902437 75.4720258,35.82393 66.9806695,35.8792844 C58.5788865,35.9296065 51.7501734,42.7985773 51.7934504,51.1560768 Z M71.7412024,38.4047419 C72.4569529,38.588224 70.428389,48.422897 70.05887,49.6177332 C70.7270044,50.6150073 70.8441106,51.9058686 70.3601716,53.0061657 C70.2686298,53.2121086 70.1634076,53.4035393 70.0421213,53.5784881 C69.7704177,53.9869451 69.4152828,54.3264673 68.9973436,54.5876247 C68.0030797,55.2089098 66.7710939,55.2984508 65.7018904,54.8273672 C64.1387138,54.1414756 63.2846988,52.4370874 63.6788264,50.7760383 C63.7315003,50.5632509 63.7977515,50.359275 63.8834877,50.1661841 C64.3600667,49.0762512 65.3944593,48.2811498 66.5653011,48.093758 C66.5653011,48.093758 71.0254519,38.2212599 71.7412024,38.4047419 Z"></path></g></g></g></svg>